# xmcd
#
# Track frame offsets:
# 151
# 12921
# 24788
# 38572
# 49762
# 62323
# 74645
# 87587
# 97988
# 111477
# 122938
# 132753
# 144811
# 155795
# 167759
# 178074
# 190668
#
# Disc length: 2701 seconds
#
#
# Revision: 2
# Processed by: cddbd v1.5.1PL0 Copyright (c) Steve Scherf et al.
# Submitted via: FreeRIP 2.942 
#
DISCID=e20a8b11
DTITLE=Hank Snow - Legendary
DYEAR=2003
DGENRE=Country
TTITLE0=I'm Moving On
TTITLE1=Marriage Vow
TTITLE2=I Cried But My Tears Were Too Late
TTITLE3=With This Ring I Thee Wed
TTITLE4=The Rhumba Boogie
TTITLE5=The Golden Rocket
TTITLE6=You Pass Me By
TTITLE7=Unwanted Sign Upon My Heart
TTITLE8=The Engineers Child
TTITLE9=One More Ride
TTITLE10=Down The Trail Of Achin' Hearts (with Anita Carter)
TTITLE11=Bluebird Island (with Anita Carter)
TTITLE12=Music Makin' Mamma From Memphis
TTITLE13=The Highest Bidder
TTITLE14=The Gold Rush Is Over
TTITLE15=Why Do You Punish Me
TTITLE16=Married By The Bible, Divorced By The Law
EXTD=
EXTT0=
EXTT1=
EXTT2=
EXTT3=
EXTT4=
EXTT5=
EXTT6=
EXTT7=
EXTT8=
EXTT9=
EXTT10=
EXTT11=
EXTT12=
EXTT13=
EXTT14=
EXTT15=
EXTT16=
PLAYORDER=
